<svg width="512" height="512" fill="none" xmlns="http://www.w3.org/2000/svg"><g clip-path="url(#a)"><path fill="#fff" d="M0 0h512v512H0z"/><path d="M393.121 301.972c-9.273-18.042-35.476-34.965-77.883-50.295-24.612-8.9-47.849-14.69-56.458-16.715l-27.433-134.557c-.593-2.9021-3.377-4.8134-6.298-4.3304l-81.938 13.6344c-2.081.348-3.781 1.851-4.376 3.875l-23.505 79.67c-.837 2.842.724 5.838 3.533 6.777l133.582 44.726c.095.031 29.017 6.369 59.263 17.314 39.081 14.143 63.882 29.683 71.722 44.936 3.257 6.342 3.493 12.544.717 18.963-3.63 8.396-12.857 11.574-25.443 11.574-20.052-.003-48.621-8.075-76.6-15.984-26.435-7.471-53.771-15.198-75.99-16.81-27.18-1.974-43.433 5.555-49.671 23.021-4.917 13.774-3.426 26.336 4.433 37.344 15.473 21.674 55.875 36.536 120.086 44.173 40.164 4.777 77.606 5.135 87.907 5.135 1.749 0 2.717-.01 2.78-.01 3.041-.037 5.475-2.533 5.437-5.572-.037-3.042-2.527-5.5-5.572-5.44-.421.006-43.072.454-89.364-5.061-60.082-7.158-98.918-20.859-112.315-39.624-5.719-8.011-6.706-16.921-3.022-27.24 10.077-28.211 62.043-13.523 112.296.682 25.416 7.183 49.42 13.968 69.493 15.873 9.029.858 36.503 3.468 45.651-17.689 4.109-9.501 3.761-19.046-1.032-28.37Zm-148.529-81.48-63.589-71.859 41.459-36.687 22.13 108.546Zm-8.247 7.295-105.046-35.17 41.457-36.687 63.589 71.857Zm-62.638-87.401-18.979-21.445 53.224-8.859-34.245 30.304Zm-27.225-14.148 18.979 21.446-34.245 30.304 15.266-51.75Z" fill="#000"/><rect x="3.5" y="3.5" width="505" height="505" rx="62.5" stroke="#000" stroke-width="7" stroke-dasharray="14 14"/><path fill="#fff" d="M82.5869 416.23 420.4468 78.3701l30.436 30.4361L113.023 446.6661z"/><path stroke="#000" stroke-width="6" d="M97.8787 431.879 435.879 93.8787"/></g><defs><clipPath id="a"><path fill="#fff" d="M0 0h512v512H0z"/></clipPath></defs></svg>