<?xml version="1.0" encoding="iso-8859-1"?>
<!-- Uploaded to: SVG Repo, www.svgrepo.com, Generator: SVG Repo Mixer Tools -->
<svg version="1.1" id="Layer_1" xmlns="http://www.w3.org/2000/svg" xmlns:xlink="http://www.w3.org/1999/xlink" 
	 viewBox="0 0 512 512" xml:space="preserve">
<path style="fill:#FF9F19;" d="M473.043,33.391C473.043,14.978,458.065,0,439.652,0H72.348C53.935,0,38.957,14.978,38.957,33.391
	v77.913h434.087V33.391z"/>
<path style="fill:#F28618;" d="M439.652,0H255.999v111.304h217.045V33.391C473.043,14.978,458.065,0,439.652,0z"/>
<path style="fill:#FFDFB3;" d="M473.043,155.826v328.348c0,4.274-1.603,8.181-4.252,11.13c-3.061,3.417-7.502,5.565-12.444,5.565
	H55.652c-4.942,0-9.383-2.148-12.444-5.565c-2.649-2.95-4.252-6.856-4.252-11.13V155.826H473.043z"/>
<path style="fill:#FFCC99;" d="M256,500.87h200.348c9.217,0,16.696-7.473,16.696-16.696V178.087v-22.261H256V500.87z"/>
<path style="fill:#FF9F19;" d="M473.043,378.435v105.739c0,4.274-1.603,8.181-4.252,11.13H43.208
	c-2.649-2.95-4.252-6.856-4.252-11.13V378.435H473.043z"/>
<path style="fill:#F28618;" d="M256,495.304h212.792c2.649-2.95,4.252-6.856,4.252-11.13V378.435H256V495.304z"/>
<path style="fill:#D7EBFF;" d="M372.87,500.87H139.132V328.348c0-15.368,12.458-27.826,27.826-27.826h178.086
	c15.368,0,27.826,12.458,27.826,27.826V500.87z"/>
<path style="fill:#BDDEFF;" d="M345.043,300.522H256V500.87h116.87V328.348C372.87,312.98,360.413,300.522,345.043,300.522z"/>
<rect x="172.522" y="333.913" style="fill:#3AACE6;" width="166.957" height="166.957"/>
<rect x="256" y="333.913" style="fill:#2B9FD9;" width="83.478" height="166.957"/>
<path style="fill:#736056;" d="M489.739,512H22.261c-9.217,0-16.696-7.473-16.696-16.696s7.479-16.696,16.696-16.696h467.478
	c9.217,0,16.696,7.473,16.696,16.696S498.956,512,489.739,512z"/>
<path style="fill:#665247;" d="M489.739,478.609H256V512h233.739c9.217,0,16.696-7.473,16.696-16.696
	S498.956,478.609,489.739,478.609z"/>
<path style="fill:#FFCC33;" d="M294.955,89.043l11.13-11.13h89.043l11.13,11.13l11.13,111.304l-11.132,11.132v5.564
	c0,27.619-22.468,50.087-50.087,50.087s-50.087-22.468-50.087-50.087v-5.566l-11.129-11.129V89.043z"/>
<path style="fill:#FFAE0D;" d="M356.174,267.13c-27.619,0-50.087-22.468-50.087-50.087v-50.087h100.174v50.087
	C406.261,244.663,383.793,267.13,356.174,267.13z"/>
<path style="fill:#FFE14D;" d="M217.042,89.043l-11.13-11.13h-89.043l-11.13,11.13l-11.13,111.304l11.132,11.132v5.564
	c0,27.619,22.468,50.087,50.087,50.087s50.087-22.468,50.087-50.087v-5.566l11.129-11.129V89.043z"/>
<path style="fill:#FFCC33;" d="M155.826,267.13c-27.619,0-50.087-22.468-50.087-50.087v-50.087h100.174v50.087
	C205.913,244.663,183.445,267.13,155.826,267.13z"/>
<path style="fill:#E6563A;" d="M38.955,77.913L6.127,166.957c-0.366,1.993-0.562,4.019-0.562,6.055v41.804
	c0,26.144,19.065,49.535,45.087,52.07c29.856,2.911,55.087-20.574,55.087-49.842v-50.087l16.696-89.043H38.955z"/>
<path style="fill:#D9472B;" d="M105.739,166.957H6.127c-0.366,1.993-0.562,4.019-0.562,6.055v41.804
	c0,26.144,19.065,49.535,45.087,52.07c29.856,2.911,55.087-20.574,55.087-49.842V166.957z"/>
<path style="fill:#E6563A;" d="M306.086,166.957V77.913H205.912v89.043h0.001v50.087c0,27.619,22.468,50.087,50.087,50.087
	s50.087-22.468,50.087-50.087L306.086,166.957L306.086,166.957z"/>
<g>
	<path style="fill:#D9472B;" d="M256,267.13c-27.619,0-50.087-22.468-50.087-50.087v-50.087h100.174v50.087
		C306.087,244.663,283.619,267.13,256,267.13z"/>
	<path style="fill:#D9472B;" d="M505.873,166.957l-32.829-89.043h-83.479l16.696,89.043h0.001v50.087
		c0,29.269,25.23,52.753,55.087,49.842c26.022-2.536,45.087-25.926,45.087-52.07v-41.804
		C506.435,170.976,506.239,168.95,505.873,166.957z"/>
</g>
<path style="fill:#CC3B1F;" d="M505.873,166.957h-99.612v50.087c0,29.269,25.23,52.753,55.087,49.842
	c26.022-2.536,45.087-25.926,45.087-52.07v-41.804C506.435,170.976,506.239,168.95,505.873,166.957z"/>
<rect x="256" y="77.913" style="fill:#D9472B;" width="50.087" height="89.043"/>
<path style="fill:#CC3B1F;" d="M306.086,166.957h-50.087V267.13c0,0,0,0,0.001,0c27.619,0,50.087-22.468,50.087-50.087
	L306.086,166.957L306.086,166.957z"/>
</svg>