<?xml version="1.0" encoding="iso-8859-1"?>
<!-- Uploaded to: SVG Repo, www.svgrepo.com, Generator: SVG Repo Mixer Tools -->
<svg version="1.1" id="Layer_1" xmlns="http://www.w3.org/2000/svg" xmlns:xlink="http://www.w3.org/1999/xlink" 
	 viewBox="0 0 464.032 464.032" xml:space="preserve">
<path style="fill:#42210B;" d="M440.816,337.632c12,11.2,19.2,26.4,19.2,43.2c0,16-6.4,31.2-19.2,43.2l-39.2,38.4
	c-1.6,0.8-3.2,1.6-5.6,1.6s-4-0.8-5.6-2.4l-40-38.4c-12-11.2-18.4-26.4-18.4-43.2c0-16,6.4-31.2,19.2-43.2
	C376.016,314.432,416.016,314.432,440.816,337.632z M444.016,380.032c0-12-4.8-22.4-13.6-31.2c-9.6-8.8-22.4-12.8-34.4-12.8
	s-24.8,4-34.4,13.6c-8.8,8-13.6,19.2-13.6,31.2s4.8,23.2,13.6,31.2l34.4,33.6l34.4-32.8
	C439.216,403.232,444.016,392.032,444.016,380.032z"/>
<path style="fill:#EE5656;" d="M430.416,349.632c8.8,8,13.6,19.2,13.6,31.2s-4.8,23.2-14.4,31.2l-33.6,32.8l-34.4-33.6
	c-8.8-8-13.6-19.2-13.6-31.2s4.8-22.4,13.6-31.2c9.6-8.8,21.6-13.6,34.4-13.6S420.816,340.032,430.416,349.632z M428.016,384.032
	c0-17.6-14.4-32-32-32s-32,14.4-32,32s14.4,32,32,32S428.016,401.632,428.016,384.032z"/>
<g>
	<path style="fill:#42210B;" d="M396.016,352.032c17.6,0,32,14.4,32,32s-14.4,32-32,32s-32-14.4-32-32
		S378.416,352.032,396.016,352.032z M412.016,384.032c0-8.8-7.2-16-16-16s-16,7.2-16,16s7.2,16,16,16
		S412.016,392.832,412.016,384.032z"/>
	<rect x="332.016" y="448.032" style="fill:#42210B;" width="16" height="16"/>
	<path style="fill:#42210B;" d="M344.016,253.632c2.4,5.6,4,12,4,18.4s-1.6,12-4,18.4l-14.4-6.4c1.6-4,2.4-8,2.4-12s-0.8-8-2.4-12
		L344.016,253.632z"/>
	<path style="fill:#42210B;" d="M318.416,228.032l-6.4,14.4c-4-1.6-8-2.4-12.8-2.4h-16v-16h16
		C306.416,224.032,312.816,225.632,318.416,228.032z"/>
	<path style="fill:#42210B;" d="M312.816,301.632l6.4,14.4c-6.4,2.4-12.8,4-19.2,4h-16v-16h16
		C304.016,304.032,308.816,303.232,312.816,301.632z"/>
	<rect x="265.616" y="448.032" style="fill:#42210B;" width="33.6" height="16"/>
	<path style="fill:#42210B;" d="M281.616,2.432c2.4,1.6,3.2,4.8,2.4,7.2l-40,160c-0.8,3.2-3.2,5.6-7.2,6.4h-0.8
		c-3.2,0-5.6-1.6-7.2-4l-35.2-70.4l-4,4l-10.4-12l3.2-3.2l-69.6-34.4c-3.2-1.6-4.8-4.8-4-8c0-3.2,2.4-6.4,6.4-7.2l160-40
		C276.816-0.768,280.016,0.032,281.616,2.432z M233.616,144.832l28-111.2l-55.2,55.2L233.616,144.832z M194.416,78.432l55.2-55.2
		l-111.2,28L194.416,78.432z"/>
</g>
<polygon style="fill:#2FB4C2;" points="261.616,34.432 233.616,144.832 205.616,89.632 "/>
<rect x="232.816" y="224.032" style="fill:#42210B;" width="25.6" height="16"/>
<polygon style="fill:#1D9AAE;" points="249.616,22.432 194.416,78.432 139.216,50.432 "/>
<g>
	<rect x="210.416" y="304.032" style="fill:#42210B;" width="36.8" height="16"/>
	<rect x="199.216" y="448.032" style="fill:#42210B;" width="32.8" height="16"/>
	<rect x="181.616" y="224.032" style="fill:#42210B;" width="25.6" height="16"/>
	<rect x="136.816" y="304.032" style="fill:#42210B;" width="36.8" height="16"/>
	<rect x="132.816" y="448.032" style="fill:#42210B;" width="33.6" height="16"/>
	
		<rect x="128.049" y="126.096" transform="matrix(-0.7413 0.6712 -0.6712 -0.7413 343.6216 135.7421)" style="fill:#42210B;" width="35.201" height="16"/>
	<path style="fill:#42210B;" d="M156.016,224.032v16h-16c-6.4,0-12.8-1.6-18.4-4l6.4-14.4c4,1.6,8,2.4,12.8,2.4H156.016z"/>
	<path style="fill:#42210B;" d="M100.016,165.632l13.6,8.8c-4,5.6-5.6,11.2-5.6,17.6c0,3.2,0.8,6.4,1.6,9.6l-15.2,4.8
		c-1.6-4.8-2.4-9.6-2.4-14.4C92.016,182.432,94.416,173.632,100.016,165.632z"/>
	<path style="fill:#42210B;" d="M100.016,448.032v16h-16c-5.6,0-12-0.8-17.6-1.6l3.2-16c4.8,0.8,9.6,1.6,14.4,1.6H100.016z"/>
	<path style="fill:#42210B;" d="M100.016,304.032v16h-16c-4.8,0-9.6,0.8-14.4,1.6l-3.2-16c5.6-1.6,12-1.6,17.6-1.6H100.016z"/>
	<path style="fill:#42210B;" d="M38.416,318.432l9.6,12.8c-7.2,4.8-12.8,10.4-16.8,17.6l-13.6-8.8
		C22.416,332.032,29.616,324.032,38.416,318.432z"/>
	<path style="fill:#42210B;" d="M47.216,436.832l-8.8,12.8c-8.8-5.6-16-13.6-21.6-22.4l13.6-8.8
		C35.216,425.632,40.816,432.032,47.216,436.832z"/>
	<path style="fill:#42210B;" d="M5.616,368.832l16,3.2c-0.8,4-1.6,8-1.6,12s0.8,8,1.6,12l-16,3.2c-0.8-4.8-1.6-9.6-1.6-15.2
		C4.016,379.232,4.816,373.632,5.616,368.832z"/>
</g>
</svg>