<svg viewBox="0 0 801 800" xmlns="http://www.w3.org/2000/svg">
<g clip-path="url(#clip0_1_2)">
<path d="M138.269 18.1156L19.1891 136.389L664.681 781.881L783.358 663.205L138.269 18.1156ZM152.725 149.056C145.73 156.052 134.384 156.052 127.389 149.056C120.394 142.061 120.394 130.716 127.389 123.72C134.384 116.725 145.73 116.725 152.725 123.72C159.72 130.717 159.72 142.061 152.725 149.056ZM652.016 673.684C645.02 666.689 645.02 655.344 652.016 648.348C659.011 641.353 670.356 641.353 677.352 648.348C684.347 655.344 684.347 666.689 677.352 673.684C670.356 680.68 659.013 680.68 652.016 673.684Z" fill="#FF9356"/>
<path d="M239.919 383.23C243.417 386.728 248.002 388.477 252.586 388.477C257.17 388.477 261.756 386.728 265.253 383.23C272.248 376.234 272.248 364.889 265.253 357.892L231.911 324.55L279.677 276.784C286.672 269.789 286.672 258.444 279.677 251.448C272.681 244.453 261.336 244.453 254.341 251.448L206.577 299.214L164.62 257.258L212.386 209.492C219.381 202.497 219.381 191.152 212.386 184.155C205.391 177.159 194.045 177.159 187.048 184.155L139.283 231.92L43.7953 136.433L137.452 43.4078L358.595 264.552C365.591 271.547 376.936 271.547 383.933 264.552C390.928 257.556 390.928 246.211 383.933 239.216L150.164 5.44685C143.184 -1.53127 131.873 -1.55002 124.87 5.40466L5.79065 123.678C2.41096 127.036 0.507837 131.597 0.500024 136.358C0.492212 141.119 2.37971 145.687 5.7469 149.056L239.919 383.23Z" fill="#01121C"/>
<path d="M795.255 650.537L561.284 416.567C554.289 409.572 542.944 409.572 535.947 416.567C528.952 423.562 528.952 434.908 535.947 441.905L757.25 663.206L663.909 756.547L568.38 661.016L616.145 613.25C623.141 606.255 623.141 594.909 616.145 587.914C609.15 580.919 597.805 580.919 590.809 587.914L543.045 635.68L501.089 593.723L548.855 545.958C555.85 538.962 555.85 527.617 548.855 520.62C541.859 513.622 530.514 513.625 523.517 520.62L475.752 568.386L442.609 535.244C435.614 528.25 424.269 528.25 417.272 535.244C410.277 542.239 410.277 553.584 417.272 560.581L651.242 794.552C654.741 798.05 659.325 799.798 663.911 799.798C668.495 799.798 673.081 798.05 676.578 794.552L795.255 675.875C802.248 668.877 802.248 657.533 795.255 650.537Z" fill="#01121C"/>
<path d="M139.283 100.558C129.712 100.558 120.714 104.284 113.947 111.052C107.178 117.819 103.452 126.817 103.452 136.389C103.452 145.959 107.18 154.958 113.947 161.725C120.714 168.494 129.712 172.22 139.283 172.22C148.853 172.22 157.852 168.492 164.62 161.725C178.589 147.755 178.589 125.023 164.62 111.053C157.852 104.284 148.853 100.558 139.283 100.558Z" fill="#01121C"/>
<path d="M689.245 686.352C703.216 672.381 703.216 649.65 689.245 635.678C675.273 621.708 652.544 621.709 638.572 635.678C624.602 649.648 624.602 672.38 638.572 686.352C645.558 693.336 654.733 696.828 663.909 696.828C673.084 696.828 682.259 693.338 689.245 686.352Z" fill="#01121C"/>
<g clip-path="url(#clip1_1_2)">
<path d="M323.935 532.815L222.828 431.839L138.392 516.168L140.02 615.516L187.201 669.373L323.935 532.815Z" fill="#4EB9FF"/>
<path d="M138.392 516.168L35.7312 618.696L84.5405 771.9L187.201 669.373L138.392 516.168Z" fill="#9AD7FF"/>
<path d="M718.761 175.561C756.93 137.442 756.93 75.6369 718.761 37.5173C680.592 -0.602355 618.708 -0.602355 580.54 37.5173L565.182 52.8553L608.697 147.441L703.405 190.901L718.761 175.561Z" fill="#174461"/>
<path d="M565.182 52.8569L178.675 438.867L211.95 543.679L316.895 576.913L703.405 190.901L565.182 52.8569Z" fill="#FF755C"/>
<path d="M588.449 211.123C600.464 199.123 600.464 179.665 588.449 167.664C576.433 155.662 556.951 155.663 544.933 167.664L478.382 234.129L467.291 274.179L427.19 285.257L283.849 428.413C271.834 440.414 271.834 459.871 283.849 471.873C295.865 483.875 315.348 483.873 327.365 471.873L470.705 328.717L481.796 288.667L521.897 277.591L588.449 211.123Z" fill="#9AD7FF"/>
<path d="M470.709 328.722L521.901 277.596L478.388 234.139L427.196 285.265L470.709 328.722Z" fill="#174461"/>
<path d="M209.339 690.922L303.518 596.867L320.285 602.194C326.734 604.242 333.787 602.533 338.571 597.751L740.608 196.227C762.347 174.516 774.319 145.651 774.319 114.947C774.319 84.243 762.345 55.3786 740.608 33.6675C718.87 11.9565 689.967 0 659.224 0C628.482 0 599.578 11.9549 577.839 33.6675L562.047 49.4394C562.011 49.4753 561.975 49.5096 561.941 49.5455C561.907 49.5814 561.871 49.6173 561.836 49.6547L175.801 435.189C171.017 439.969 169.301 447.013 171.353 453.453L176.687 470.197L134.89 511.94C134.708 512.115 134.529 512.293 134.358 512.474L31.9828 614.717C27.1984 619.497 25.4828 626.541 27.5344 632.981L76.4046 786.375C78.3202 792.386 83.2358 796.967 89.3733 798.46C90.7921 798.803 92.228 798.972 93.6514 798.972C98.3952 798.972 103.015 797.109 106.451 793.677L208.798 691.459C208.982 691.282 209.162 691.105 209.339 690.922ZM603.436 59.233C618.338 44.3491 638.149 36.1534 659.222 36.1534C680.296 36.1534 700.106 44.3491 715.008 59.233C729.91 74.1139 738.116 93.9009 738.116 114.947C738.116 135.993 729.91 155.782 715.008 170.661L711.91 173.756L600.335 62.3244L603.436 59.233ZM574.743 87.8898L686.317 199.321L320.762 564.404L236.12 537.506L215.731 473.508C215.529 470.689 214.671 467.906 213.151 465.413L209.187 452.972L574.743 87.8898ZM192.893 608.149C189.862 598.633 179.684 593.381 170.158 596.405C160.631 599.432 155.368 609.599 158.398 619.111L175.693 673.396L101.881 747.11L65.3671 632.502L139.179 558.784L142.075 567.877C145.104 577.389 155.283 582.649 164.809 579.622C174.336 576.594 179.6 566.429 176.57 556.915L167.997 530.003L189.045 508.981L204.464 557.377C206.245 562.965 210.628 567.344 216.223 569.121L264.681 584.52L204.511 644.613L192.893 608.149Z" fill="#01121C"/>
<path d="M313.526 509.175C326.624 509.175 338.94 504.082 348.201 494.829L611.543 231.825C620.804 222.576 625.907 210.276 625.907 197.196C625.907 184.114 620.807 171.814 611.544 162.567C602.283 153.315 589.968 148.22 576.869 148.22C563.771 148.22 551.455 153.313 542.194 162.565L475.166 229.507C475.121 229.551 475.074 229.598 475.029 229.643C474.982 229.688 474.937 229.735 474.891 229.782L423.129 281.478C423.085 281.52 423.041 281.565 422.999 281.606C422.956 281.649 422.912 281.693 422.87 281.735L278.854 425.566C269.593 434.815 264.49 447.114 264.49 460.196C264.49 473.276 269.59 485.576 278.853 494.825C288.114 504.08 300.428 509.175 313.526 509.175ZM567.79 188.131C567.793 188.131 567.793 188.131 567.79 188.131C570.215 185.709 573.44 184.375 576.868 184.375C580.297 184.375 583.521 185.709 585.946 188.131C588.369 190.553 589.705 193.771 589.705 197.197C589.705 200.623 588.369 203.84 585.944 206.262L531.577 260.559L513.421 242.427L567.79 188.131ZM487.829 267.991L505.985 286.123L479.551 312.522L461.394 294.389L487.829 267.991ZM304.448 451.134L435.798 319.955L453.954 338.088L322.606 469.265C320.181 471.687 316.957 473.022 313.528 473.022C310.098 473.022 306.874 471.687 304.449 469.265C302.026 466.844 300.69 463.626 300.69 460.201C300.69 456.775 302.023 453.556 304.448 451.134Z" fill="#01121C"/>
</g>
</g>
<defs>
<clipPath id="clip0_1_2">
<rect width="800" height="800" fill="white" transform="translate(0.5)"/>
</clipPath>
<clipPath id="clip1_1_2">
<rect width="800" height="798.972" fill="white" transform="translate(0.5)"/>
</clipPath>
</defs>
</svg>
