<svg xmlns="http://www.w3.org/2000/svg" viewBox="0 0 512 512">
<path style="fill:#DFDFE1;" d="M32.337,512L0,479.663c14.539-14.539,15.794-25.841,17.695-42.946
	c2.195-19.76,4.928-44.352,30.811-70.232s50.473-28.614,70.232-30.811c17.105-1.901,28.407-3.157,42.946-17.695l43.115-43.115
	l32.337,32.337l-43.115,43.115c-25.882,25.882-50.473,28.614-70.232,30.811c-17.105,1.901-28.407,3.157-42.946,17.695
	c-14.539,14.538-15.794,25.841-17.695,42.946C60.95,461.527,58.219,486.118,32.337,512z"/>
<polygon style="fill:#7AB9E8;" points="512,0 231.747,0 177.853,334.147 512,280.253 "/>
<polygon style="fill:#579ADF;" points="512,0 177.853,334.147 512,280.253 "/>
<polygon style="fill:#4A82CA;" points="404.21,140.126 512,32.337 512,0 479.663,0 371.874,107.79 264.084,0 231.747,0 
	227.256,27.846 339.537,140.126 184.071,295.591 177.853,334.147 216.407,327.929 371.874,172.463 484.154,284.744 512,280.253 
	512,247.916 "/>
</svg>