<svg viewBox="0 0 368 266" xmlns="http://www.w3.org/2000/svg"><path d="M272.05 132.604c-5.97-11.615-22.84-22.51-50.14-32.38-15.846-5.73-30.805-9.457-36.348-10.76L167.9 2.837a3.545 3.545 0 0 0-4.055-2.789l-52.751 8.778a3.544 3.544 0 0 0-2.817 2.494L93.146 62.611a3.544 3.544 0 0 0 2.274 4.364l86 28.794c.06.02 18.68 4.1 38.153 11.147 25.16 9.105 41.127 19.109 46.174 28.93 2.097 4.082 2.249 8.076.462 12.208-2.337 5.405-8.278 7.451-16.38 7.451-12.91-.001-31.302-5.199-49.315-10.29-17.019-4.811-34.618-9.785-48.922-10.823-17.499-1.271-27.962 3.577-31.978 14.822-3.166 8.867-2.207 16.955 2.852 24.042 9.962 13.953 35.973 23.521 77.312 28.438 25.857 3.075 49.963 3.306 56.594 3.306 1.127 0 1.751-.007 1.791-.007a3.544 3.544 0 0 0 3.5-3.588c-.024-1.957-1.627-3.54-3.587-3.501-.272.004-27.731.292-57.532-3.258-38.681-4.608-63.685-13.429-72.309-25.51-3.681-5.157-4.318-10.894-1.945-17.537 6.486-18.162 39.942-8.706 72.296.439 16.362 4.624 31.816 8.993 44.739 10.219 5.812.552 23.5 2.232 29.39-11.389 2.645-6.116 2.421-12.26-.665-18.264zm-95.623-52.457L135.49 33.885l26.69-23.619 14.247 69.88zm-5.308 4.698L103.49 62.2l26.69-23.618 40.939 46.262zm-40.327-56.269-12.218-13.807 34.265-5.702-22.047 19.509zm-17.527-9.11 12.218 13.808-22.047 19.51 9.829-33.318zM6.048 235.908c.648-1.128 1.608-2.064 2.88-2.808 1.296-.768 2.796-1.152 4.5-1.152 1.752 0 3.336.42 4.752 1.26 1.44.84 2.568 2.028 3.384 3.564.816 1.512 1.224 3.276 1.224 5.292 0 1.992-.408 3.768-1.224 5.328-.816 1.56-1.944 2.772-3.384 3.636-1.416.864-3 1.296-4.752 1.296-1.68 0-3.168-.372-4.464-1.116-1.272-.768-2.244-1.716-2.916-2.844v12.996H2.772v-29.088h3.276v3.636zm13.392 6.156c0-1.488-.3-2.784-.9-3.888-.6-1.104-1.416-1.944-2.448-2.52-1.008-.576-2.124-.864-3.348-.864-1.2 0-2.316.3-3.348.9-1.008.576-1.824 1.428-2.448 2.556-.6 1.104-.9 2.388-.9 3.852 0 1.488.3 2.796.9 3.924.624 1.104 1.44 1.956 2.448 2.556a6.758 6.758 0 0 0 3.348.864c1.224 0 2.34-.288 3.348-.864 1.032-.6 1.848-1.452 2.448-2.556.6-1.128.9-2.448.9-3.96zm11.836 0c0-2.016.408-3.78 1.224-5.292.816-1.536 1.932-2.724 3.348-3.564 1.44-.84 3.036-1.26 4.788-1.26 1.728 0 3.228.372 4.5 1.116 1.272.744 2.22 1.68 2.844 2.808v-3.6h3.312V252H47.98v-3.672c-.648 1.152-1.62 2.112-2.916 2.88-1.272.744-2.76 1.116-4.464 1.116-1.752 0-3.336-.432-4.752-1.296-1.416-.864-2.532-2.076-3.348-3.636-.816-1.56-1.224-3.336-1.224-5.328zm16.704.036c0-1.488-.3-2.784-.9-3.888-.6-1.104-1.416-1.944-2.448-2.52-1.008-.6-2.124-.9-3.348-.9-1.224 0-2.34.288-3.348.864-1.008.576-1.812 1.416-2.412 2.52-.6 1.104-.9 2.4-.9 3.888 0 1.512.3 2.832.9 3.96.6 1.104 1.404 1.956 2.412 2.556 1.008.576 2.124.864 3.348.864 1.224 0 2.34-.288 3.348-.864 1.032-.6 1.848-1.452 2.448-2.556.6-1.128.9-2.436.9-3.924zm17.524-6.192c.648-1.128 1.608-2.064 2.88-2.808 1.296-.768 2.796-1.152 4.5-1.152 1.752 0 3.336.42 4.752 1.26 1.44.84 2.568 2.028 3.384 3.564.816 1.512 1.224 3.276 1.224 5.292 0 1.992-.408 3.768-1.224 5.328-.816 1.56-1.944 2.772-3.384 3.636-1.416.864-3 1.296-4.752 1.296-1.68 0-3.168-.372-4.464-1.116-1.272-.768-2.244-1.716-2.916-2.844v12.996h-3.276v-29.088h3.276v3.636zm13.392 6.156c0-1.488-.3-2.784-.9-3.888-.6-1.104-1.416-1.944-2.448-2.52-1.008-.576-2.124-.864-3.348-.864-1.2 0-2.316.3-3.348.9-1.008.576-1.824 1.428-2.448 2.556-.6 1.104-.9 2.388-.9 3.852 0 1.488.3 2.796.9 3.924.624 1.104 1.44 1.956 2.448 2.556a6.758 6.758 0 0 0 3.348.864c1.224 0 2.34-.288 3.348-.864 1.032-.6 1.848-1.452 2.448-2.556.6-1.128.9-2.448.9-3.96zm14.752-12.996a2.155 2.155 0 0 1-1.584-.648 2.155 2.155 0 0 1-.648-1.584c0-.624.216-1.152.648-1.584.432-.432.96-.648 1.584-.648.6 0 1.104.216 1.512.648.432.432.648.96.648 1.584 0 .624-.216 1.152-.648 1.584a1.997 1.997 0 0 1-1.512.648zm1.584 3.204V252h-3.276v-19.728h3.276zm14.26 3.204c.576-1.128 1.392-2.004 2.448-2.628 1.08-.624 2.388-.936 3.924-.936v3.384H115c-3.672 0-5.508 1.992-5.508 5.976V252h-3.276v-19.728h3.276v3.204zm22.537 16.848c-1.512 0-2.868-.252-4.068-.756-1.2-.528-2.148-1.248-2.844-2.16-.696-.936-1.08-2.004-1.152-3.204h3.384c.096.984.552 1.788 1.368 2.412.84.624 1.932.936 3.276.936 1.248 0 2.232-.276 2.952-.828.72-.552 1.08-1.248 1.08-2.088 0-.864-.384-1.5-1.152-1.908-.768-.432-1.956-.852-3.564-1.26-1.464-.384-2.664-.768-3.6-1.152a6.836 6.836 0 0 1-2.376-1.764c-.648-.792-.972-1.824-.972-3.096 0-1.008.3-1.932.9-2.772.6-.84 1.452-1.5 2.556-1.98 1.104-.504 2.364-.756 3.78-.756 2.184 0 3.948.552 5.292 1.656 1.344 1.104 2.064 2.616 2.16 4.536h-3.276c-.072-1.032-.492-1.86-1.26-2.484-.744-.624-1.752-.936-3.024-.936-1.176 0-2.112.252-2.808.756-.696.504-1.044 1.164-1.044 1.98 0 .648.204 1.188.612 1.62.432.408.96.744 1.584 1.008.648.24 1.536.516 2.664.828 1.416.384 2.568.768 3.456 1.152a5.73 5.73 0 0 1 2.268 1.656c.648.744.984 1.716 1.008 2.916 0 1.08-.3 2.052-.9 2.916-.6.864-1.452 1.548-2.556 2.052-1.08.48-2.328.72-3.744.72zm16.001-10.26c0-2.016.408-3.78 1.224-5.292.816-1.536 1.932-2.724 3.348-3.564 1.44-.84 3.036-1.26 4.788-1.26 1.728 0 3.228.372 4.5 1.116 1.272.744 2.22 1.68 2.844 2.808v-3.6h3.312V252h-3.312v-3.672c-.648 1.152-1.62 2.112-2.916 2.88-1.272.744-2.76 1.116-4.464 1.116-1.752 0-3.336-.432-4.752-1.296-1.416-.864-2.532-2.076-3.348-3.636-.816-1.56-1.224-3.336-1.224-5.328zm16.704.036c0-1.488-.3-2.784-.9-3.888-.6-1.104-1.416-1.944-2.448-2.52-1.008-.6-2.124-.9-3.348-.9-1.224 0-2.34.288-3.348.864-1.008.576-1.812 1.416-2.412 2.52-.6 1.104-.9 2.4-.9 3.888 0 1.512.3 2.832.9 3.96.6 1.104 1.404 1.956 2.412 2.556 1.008.576 2.124.864 3.348.864 1.224 0 2.34-.288 3.348-.864 1.032-.6 1.848-1.452 2.448-2.556.6-1.128.9-2.436.9-3.924zm17.524-6.624c.576-1.128 1.392-2.004 2.448-2.628 1.08-.624 2.388-.936 3.924-.936v3.384h-.864c-3.672 0-5.508 1.992-5.508 5.976V252h-3.276v-19.728h3.276v3.204zM208.828 252l-7.74-8.712V252h-3.276v-26.64h3.276v15.66l7.596-8.748h4.572l-9.288 9.828 9.324 9.9h-4.464zm11.687-9.936c0-2.016.408-3.78 1.224-5.292.816-1.536 1.932-2.724 3.348-3.564 1.44-.84 3.036-1.26 4.788-1.26 1.728 0 3.228.372 4.5 1.116 1.272.744 2.22 1.68 2.844 2.808v-3.6h3.312V252h-3.312v-3.672c-.648 1.152-1.62 2.112-2.916 2.88-1.272.744-2.76 1.116-4.464 1.116-1.752 0-3.336-.432-4.752-1.296-1.416-.864-2.532-2.076-3.348-3.636-.816-1.56-1.224-3.336-1.224-5.328zm16.704.036c0-1.488-.3-2.784-.9-3.888-.6-1.104-1.416-1.944-2.448-2.52-1.008-.6-2.124-.9-3.348-.9-1.224 0-2.34.288-3.348.864-1.008.576-1.812 1.416-2.412 2.52-.6 1.104-.9 2.4-.9 3.888 0 1.512.3 2.832.9 3.96.6 1.104 1.404 1.956 2.412 2.556 1.008.576 2.124.864 3.348.864 1.224 0 2.34-.288 3.348-.864 1.032-.6 1.848-1.452 2.448-2.556.6-1.128.9-2.436.9-3.924zm23.86-10.188c2.4 0 4.344.732 5.832 2.196 1.488 1.44 2.232 3.528 2.232 6.264V252h-3.24v-11.16c0-1.968-.492-3.468-1.476-4.5-.984-1.056-2.328-1.584-4.032-1.584-1.728 0-3.108.54-4.14 1.62-1.008 1.08-1.512 2.652-1.512 4.716V252h-3.276v-19.728h3.276v2.808a6.531 6.531 0 0 1 2.628-2.34c1.128-.552 2.364-.828 3.708-.828zm35.808.36-11.88 29.016h-3.384l3.888-9.504-7.956-19.512h3.636l6.192 15.984 6.12-15.984h3.384zm9.737 19.944a2.155 2.155 0 0 1-1.584-.648 2.155 2.155 0 0 1-.648-1.584c0-.624.216-1.152.648-1.584.432-.432.96-.648 1.584-.648.6 0 1.104.216 1.512.648.432.432.648.96.648 1.584 0 .624-.216 1.152-.648 1.584a1.997 1.997 0 0 1-1.512.648zm21.706-20.304c1.488 0 2.832.324 4.032.972 1.2.624 2.136 1.572 2.808 2.844.696 1.272 1.044 2.82 1.044 4.644V252h-3.24v-11.16c0-1.968-.492-3.468-1.476-4.5-.984-1.056-2.328-1.584-4.032-1.584-1.728 0-3.108.54-4.14 1.62-1.008 1.08-1.512 2.652-1.512 4.716V252h-3.276v-26.64h3.276v9.72c.648-1.008 1.536-1.788 2.664-2.34 1.152-.552 2.436-.828 3.852-.828zm36.132.36V252h-3.276v-2.916c-.624 1.008-1.5 1.8-2.628 2.376-1.104.552-2.328.828-3.672.828-1.536 0-2.916-.312-4.14-.936-1.224-.648-2.196-1.608-2.916-2.88-.696-1.272-1.044-2.82-1.044-4.644v-11.556h3.24v11.124c0 1.944.492 3.444 1.476 4.5.984 1.032 2.328 1.548 4.032 1.548 1.752 0 3.132-.54 4.14-1.62 1.008-1.08 1.512-2.652 1.512-4.716v-10.836h3.276z" fill="#000"/></svg>